<?xml version="1.0" standalone="no"?><!DOCTYPE svg PUBLIC "-//W3C//DTD SVG 1.1//EN" "http://www.w3.org/Graphics/SVG/1.1/DTD/svg11.dtd"><svg class="icon" width="200px" height="200.00px" viewBox="0 0 1024 1024" version="1.1" xmlns="http://www.w3.org/2000/svg"><path d="M968.533333 793.6L682.666667 328.533333V170.666667h42.666666c25.6 0 42.666667-17.066667 42.666667-42.666667s-17.066667-42.666667-42.666667-42.666667H298.666667c-25.6 0-42.666667 17.066667-42.666667 42.666667s17.066667 42.666667 42.666667 42.666667h42.666666v174.933333L59.733333 793.6c-38.4 64 8.533333 145.066667 85.333334 145.066667h742.4c72.533333 0 119.466667-81.066667 81.066666-145.066667zM426.666667 371.2V170.666667h170.666666v179.2l93.866667 162.133333H682.666667c-128 0-170.666667 85.333333-298.666667 85.333333-25.6 0-55.466667-4.266667-81.066667-12.8l123.733334-213.333333z" fill="#e6e6e6" /></svg>