<?xml version="1.0" standalone="no"?><!DOCTYPE svg PUBLIC "-//W3C//DTD SVG 1.1//EN" "http://www.w3.org/Graphics/SVG/1.1/DTD/svg11.dtd"><svg class="icon" width="200px" height="200.00px" viewBox="0 0 1024 1024" version="1.1" xmlns="http://www.w3.org/2000/svg"><path d="M836.693333 32.853333H186.112A100.394667 100.394667 0 0 0 86.016 132.992v750.72a100.394667 100.394667 0 0 0 100.096 100.096H836.693333a100.394667 100.394667 0 0 0 100.096-100.096V132.949333A100.394667 100.394667 0 0 0 836.693333 32.896zM258.645333 275.626667h260.266667c15.018667 0 25.002667 9.984 25.002667 25.002666s-9.984 25.002667-25.002667 25.002667h-260.266667c-15.018667 0-25.002667-9.984-25.002666-25.002667s9.984-25.045333 25.002666-25.045333z m497.962667 440.405333H258.688c-15.061333 0-25.045333-10.026667-25.045333-25.045333s9.984-25.002667 25.002666-25.002667h497.962667c15.018667 0 25.045333 9.984 25.045333 25.002667s-10.026667 25.045333-25.045333 25.045333z m7.509333-195.2H258.645333c-15.018667 0-25.002667-10.026667-25.002666-25.002667 0-15.018667 9.984-25.045333 25.002666-25.045333h507.989334c15.018667 0 25.002667 10.026667 25.002666 25.045333 0 14.976-12.501333 25.002667-27.52 25.002667z" fill="#e6e6e6" /></svg>