<?xml version="1.0" standalone="no"?><!DOCTYPE svg PUBLIC "-//W3C//DTD SVG 1.1//EN" "http://www.w3.org/Graphics/SVG/1.1/DTD/svg11.dtd"><svg class="icon" width="200px" height="200.00px" viewBox="0 0 1024 1024" version="1.1" xmlns="http://www.w3.org/2000/svg"><path d="M864 448l0 1.648-151.763 262.86L560 448.825 560 448l-96 0 0 448L256 896c-106.039 0-192-85.961-192-192s85.961-192 192-191.981c1.019-0.019 3.048 0 3.048 0L289.5 512.5c1.784 0.128 12.5 1 23.5-11s7.001-22.623 7.001-36.093c0-160.346 129.838-290.333 290-290.333 75.256 0 143.816 28.698 195.358 75.76 5.935 5.418 4.643 5.08 10.109 10.968 6.285 8.916 16.653 15.397 28.533 15.397 17.673 0 32-14.343 32-32.037C876 234.168 870 225 862.5 217.5c-5.388-5.88-4.433-4.375-10.205-9.873C789.256 147.6 703.897 111 610 111c-189.681 0-344.514 149.355-353.576 337.005C114.615 448 0 562.615 0 704s114.615 256 256 256l228.997 0L560 960 560 640.826l92.181 159.661 0.845-0.487 81.949 0 0.488 0.281L864 577.648 864 960l96 0L960 448 864 448z" fill="#e6e6e6" /></svg>